Coordinates
version=1
nRows=37
nColumns=34
inDegrees=no

Units are S.I. units (second, meters, Newtons, ...)
If the header above contains a line with 'inDegrees', this indicates whether rotational values are in degrees (yes) or radians (no).

endheader
time	pelvis_tilt	pelvis_list	pelvis_rotation	pelvis_tx	pelvis_ty	pelvis_tz	hip_flexion_r	hip_adduction_r	hip_rotation_r	knee_angle_r	ankle_angle_r	subtalar_angle_r	mtp_angle_r	hip_flexion_l	hip_adduction_l	hip_rotation_l	knee_angle_l	ankle_angle_l	subtalar_angle_l	mtp_angle_l	lumbar_extension	lumbar_bending	lumbar_rotation	arm_flex_r	arm_add_r	arm_rot_r	elbow_flex_r	pro_sup_r	arm_flex_l	arm_add_l	arm_rot_l	elbow_flex_l	pro_sup_l
0	0.225575	-0.00361135	-0.00262235	-0.126845	1.08508	-0.630411	-0.302966	-0.0899081	-0.320594	0.0836732	0.212896	0.222608	-0.0323949	-0.306646	-0.129761	-0.345562	0.0892754	0.237059	0.385027	-0.0323559	-0.407676	0.0136002	0.0414719	-0.0371692	-0.121431	-0.178717	0.632087	1.80551	-0.0485127	-0.0990697	-0.166231	0.658275	1.76306
0.01	0.224775	-0.00302889	-0.00268173	-0.126684	1.08496	-0.630395	-0.302118	-0.0904698	-0.320429	0.0835484	0.212632	0.222007	-0.0323948	-0.306131	-0.128779	-0.344523	0.0882471	0.236218	0.383971	-0.0323559	-0.405733	0.0131605	0.0361294	-0.0333639	-0.121129	-0.173552	0.627933	1.80639	-0.051577	-0.0990331	-0.171052	0.65942	1.76097
0.02	0.224274	-0.00260228	-0.00269902	-0.126585	1.08486	-0.630383	-0.301611	-0.0908315	-0.320231	0.0833032	0.212311	0.221427	-0.0323948	-0.305631	-0.128121	-0.34408	0.0878029	0.235669	0.383566	-0.0323558	-0.404406	0.0128835	0.0318132	-0.0299994	-0.121148	-0.168538	0.624445	1.80729	-0.0537483	-0.099321	-0.173936	0.66023	1.75832
0.03	0.224061	-0.0023293	-0.00267235	-0.12655	1.08478	-0.630375	-0.30143	-0.0909955	-0.320001	0.0829432	0.211933	0.220865	-0.0323947	-0.305125	-0.12779	-0.344235	0.0879584	0.235418	0.38381	-0.0323558	-0.403683	0.0127684	0.02851	-0.0270593	-0.121486	-0.16366	0.621607	1.8082	-0.0550205	-0.0999358	-0.174889	0.660688	1.75514
0.04	0.22411	-0.00220332	-0.00259747	-0.12658	1.08474	-0.630372	-0.301534	-0.0909692	-0.319744	0.0824858	0.211499	0.220309	-0.0323947	-0.304558	-0.127788	-0.344992	0.0887536	0.235473	0.384698	-0.0323557	-0.403529	0.0128105	0.0261796	-0.0244922	-0.122145	-0.158866	0.619363	1.80905	-0.0553777	-0.100882	-0.173944	0.660739	1.75148
0.05	0.224378	-0.00221138	-0.00247001	-0.126679	1.08472	-0.630371	-0.301851	-0.0907706	-0.319472	0.0819666	0.211013	0.219745	-0.0323946	-0.303843	-0.128113	-0.346339	0.0902493	0.235847	0.386198	-0.0323556	-0.403887	0.012997	0.0247538	-0.0222031	-0.123124	-0.15406	0.617605	1.80971	-0.0547891	-0.102161	-0.17117	0.66029	1.74743
0.06	0.224804	-0.00233305	-0.00228959	-0.126849	1.08472	-0.630372	-0.302278	-0.0904317	-0.319201	0.0814437	0.210484	0.219159	-0.0323946	-0.302871	-0.128754	-0.348242	0.0925111	0.236544	0.388235	-0.0323556	-0.404679	0.0133042	0.0241412	-0.0200519	-0.124429	-0.149097	0.616169	1.80996	-0.0532082	-0.103767	-0.166669	0.659203	1.74315
0.07	0.225318	-0.00254081	-0.00206438	-0.127095	1.08473	-0.630373	-0.302684	-0.0900021	-0.318945	0.0809998	0.209925	0.218539	-0.0323946	-0.301527	-0.129678	-0.350621	0.0955859	0.237551	0.39067	-0.0323555	-0.405812	0.0136988	0.0242307	-0.0178573	-0.126069	-0.143791	0.614841	1.80954	-0.050579	-0.105686	-0.160578	0.657308	1.73886
0.08	0.225838	-0.00280266	-0.00181412	-0.127423	1.08475	-0.630373	-0.302917	-0.0895453	-0.318716	0.0807395	0.209354	0.217874	-0.0323945	-0.299703	-0.130834	-0.353348	0.0994826	0.238828	0.393296	-0.0323555	-0.407188	0.0141427	0.0248964	-0.0154059	-0.12806	-0.137923	0.613372	1.80812	-0.046844	-0.107893	-0.15305	0.654424	1.73478
0.09	0.226282	-0.00308807	-0.00157047	-0.127838	1.08478	-0.630372	-0.302814	-0.0891302	-0.318511	0.080783	0.208796	0.217152	-0.0323945	-0.297318	-0.132155	-0.356262	0.104162	0.240313	0.395864	-0.0323554	-0.408715	0.0146002	0.0260106	-0.0124702	-0.130416	-0.131287	0.611505	1.80547	-0.0419466	-0.110359	-0.144241	0.650377	1.73111
0.1	0.226574	-0.00337462	-0.00137543	-0.128347	1.0848	-0.630367	-0.302212	-0.0888188	-0.318319	0.0812585	0.208281	0.216362	-0.0323944	-0.294322	-0.133576	-0.359203	0.109545	0.241935	0.39813	-0.0323554	-0.410317	0.0150436	0.0274609	-0.00882667	-0.133142	-0.12373	0.609003	1.80148	-0.0358286	-0.113052	-0.134281	0.645027	1.72793
0.11	0.226654	-0.0036532	-0.00127786	-0.128956	1.08481	-0.630357	-0.300966	-0.0886583	-0.318121	0.0822924	0.207851	0.215495	-0.0323944	-0.290694	-0.135041	-0.362039	0.115525	0.243621	0.3999	-0.0323553	-0.411943	0.0154552	0.0291639	-0.00427092	-0.136224	-0.115187	0.605669	1.79623	-0.0284287	-0.115942	-0.123263	0.638282	1.72521
0.12	0.226479	-0.00392988	-0.00132855	-0.129673	1.08482	-0.630339	-0.298957	-0.0886736	-0.317894	0.0839981	0.207548	0.214554	-0.0323943	-0.286445	-0.13652	-0.364698	0.121992	0.245313	0.401065	-0.0323553	-0.413571	0.0158291	0.0310716	0.00137061	-0.139632	-0.105696	0.601362	1.79003	-0.0196864	-0.118997	-0.111268	0.630117	1.72282
0.13	0.226031	-0.00422564	-0.00157533	-0.130507	1.08481	-0.630307	-0.296104	-0.0888623	-0.317599	0.0864606	0.2074	0.213522	-0.0323943	-0.281606	-0.138008	-0.367163	0.128842	0.246967	0.401589	-0.0323552	-0.41521	0.0161701	0.0331678	0.00823323	-0.143316	-0.0953889	0.596015	1.78333	-0.00955117	-0.122174	-0.0984151	0.620583	1.72068
0.14	0.225311	-0.00457363	-0.00206043	-0.131465	1.08479	-0.630255	-0.292368	-0.089196	-0.317173	0.0897286	0.20742	0.212365	-0.0323942	-0.276223	-0.139526	-0.369459	0.135991	0.248554	0.401495	-0.0323551	-0.416891	0.0164908	0.0354594	0.0164097	-0.147215	-0.0844861	0.589636	1.77671	0.00200412	-0.125424	-0.0849075	0.609811	1.71878
0.15	0.224333	-0.00501161	-0.00282213	-0.132553	1.08476	-0.630177	-0.287741	-0.0896294	-0.316539	0.0938141	0.2076	0.21103	-0.0323942	-0.270353	-0.141107	-0.371624	0.143369	0.25005	0.400809	-0.0323551	-0.418655	0.0168042	0.037966	0.025947	-0.151256	-0.0732735	0.582316	1.77087	0.0149688	-0.12868	-0.0710444	0.598027	1.71728
0.16	0.223116	-0.00557423	-0.00389908	-0.133777	1.08472	-0.630065	-0.282242	-0.0901129	-0.315611	0.0986982	0.207922	0.209463	-0.0323942	-0.26405	-0.142786	-0.373714	0.150926	0.25144	0.399571	-0.032355	-0.42055	0.0171161	0.040713	0.0368441	-0.155367	-0.0620508	0.574228	1.76646	0.0292836	-0.13187	-0.0571918	0.585552	1.71638
0.17	0.22168	-0.00628393	-0.00533113	-0.135139	1.08467	-0.629912	-0.275906	-0.0906059	-0.3143	0.104336	0.208361	0.207617	-0.0323941	-0.257371	-0.144584	-0.375791	0.158619	0.252705	0.39782	-0.032355	-0.422611	0.0174171	0.0437268	0.0490504	-0.159484	-0.051095	0.565634	1.76398	0.0448379	-0.134925	-0.0437274	0.5728	1.71631
0.18	0.220037	-0.0071449	-0.00714952	-0.136641	1.0846	-0.629714	-0.268774	-0.0910828	-0.312523	0.110663	0.208878	0.205444	-0.0323941	-0.250358	-0.146502	-0.377898	0.166406	0.253822	0.395584	-0.0323549	-0.424868	0.0176807	0.047025	0.0624706	-0.16355	-0.0406472	0.55687	1.76372	0.0614761	-0.137798	-0.0309748	0.560259	1.71725
0.19	0.218186	-0.00813974	-0.00935852	-0.138284	1.08452	-0.629469	-0.260881	-0.0915355	-0.310221	0.117605	0.209433	0.202896	-0.032394	-0.243026	-0.148518	-0.380024	0.174254	0.254757	0.392859	-0.0323549	-0.427335	0.0178688	0.0505984	0.0769754	-0.167519	-0.030901	0.54834	1.76571	0.0790104	-0.140469	-0.0191556	0.548479	1.7193
0.2	0.21611	-0.0092281	-0.0119167	-0.140072	1.08442	-0.629179	-0.252244	-0.091975	-0.307382	0.125094	0.209985	0.19993	-0.032394	-0.235345	-0.15059	-0.382078	0.182144	0.255474	0.389585	-0.0323548	-0.430021	0.017943	0.0543907	0.0924141	-0.171364	-0.0219619	0.540511	1.7697	0.0972397	-0.142952	-0.0083747	0.538035	1.72245
0.21	0.213777	-0.0103474	-0.0147231	-0.142012	1.0843	-0.628857	-0.242856	-0.092433	-0.304069	0.133082	0.210511	0.196521	-0.0323939	-0.227229	-0.152658	-0.383873	0.190085	0.255938	0.385644	-0.0323548	-0.432939	0.0178768	0.0582793	0.108628	-0.175086	-0.013794	0.533902	1.77513	0.115971	-0.145292	0.0013711	0.529477	1.72663
0.22	0.211147	-0.0114158	-0.017611	-0.144117	1.08415	-0.628522	-0.232692	-0.0929592	-0.30043	0.141546	0.210997	0.192674	-0.0323939	-0.218539	-0.15465	-0.385125	0.198117	0.256116	0.380857	-0.0323547	-0.436103	0.0176654	0.0620644	0.12547	-0.17872	-0.00621096	0.529041	1.78117	0.135039	-0.14756	0.0101781	0.523281	1.73164
0.23	0.208164	-0.0123436	-0.0203628	-0.146402	1.08397	-0.6282	-0.221707	-0.0936092	-0.296683	0.150482	0.211443	0.188415	-0.0323939	-0.209083	-0.156505	-0.385506	0.206323	0.255994	0.375046	-0.0323546	-0.439525	0.0173286	0.0654859	0.142827	-0.182315	0.00104312	0.526381	1.78692	0.154315	-0.149845	0.0182096	0.519797	1.73723
0.24	0.204759	-0.013057	-0.0227691	-0.14888	1.08375	-0.627912	-0.20984	-0.0944231	-0.293033	0.15989	0.21185	0.183766	-0.0323938	-0.198645	-0.15819	-0.384766	0.214818	0.255588	0.368124	-0.0323546	-0.443187	0.0169033	0.0682914	0.160637	-0.185902	0.00814588	0.526203	1.79172	0.173706	-0.152247	0.0256543	0.519208	1.74315
0.25	0.200854	-0.0135201	-0.0247112	-0.151556	1.08348	-0.627668	-0.197022	-0.0954111	-0.289584	0.169764	0.212221	0.178733	-0.0323938	-0.187049	-0.159716	-0.382837	0.223716	0.254944	0.360143	-0.0323545	-0.447029	0.0164234	0.0703299	0.178876	-0.189478	0.0151222	0.528562	1.79523	0.193143	-0.154858	0.032688	0.521525	1.74919
0.26	0.196388	-0.013744	-0.0262052	-0.154427	1.08314	-0.627464	-0.1832	-0.0965514	-0.286307	0.180085	0.212565	0.173318	-0.0323937	-0.174212	-0.161124	-0.379866	0.233083	0.254124	0.35129	-0.0323545	-0.450959	0.0159036	0.0716039	0.197536	-0.193016	0.0218702	0.533307	1.79742	0.212574	-0.157747	0.0394539	0.526607	1.75511
0.27	0.191331	-0.0137757	-0.0273727	-0.157479	1.08275	-0.627286	-0.16836	-0.0978	-0.283081	0.19082	0.212881	0.16753	-0.0323937	-0.160165	-0.16247	-0.376146	0.24293	0.253194	0.341826	-0.0323544	-0.454884	0.0153412	0.0722417	0.21662	-0.196482	0.0282474	0.540148	1.79846	0.231964	-0.160949	0.0460401	0.534212	1.76071
0.28	0.185692	-0.0136783	-0.0283693	-0.160699	1.08227	-0.627118	-0.152535	-0.0991052	-0.279779	0.201926	0.213158	0.161395	-0.0323936	-0.145013	-0.163811	-0.371994	0.253219	0.252204	0.332008	-0.0323544	-0.458739	0.0147293	0.0724213	0.236133	-0.199858	0.034155	0.548736	1.79858	0.251306	-0.164465	0.0524529	0.544043	1.76589
0.29	0.179508	-0.0135152	-0.0293277	-0.164072	1.08172	-0.626948	-0.135792	-0.100415	-0.276323	0.213352	0.213364	0.154958	-0.0323936	-0.128896	-0.165196	-0.367676	0.263882	0.251192	0.322051	-0.0323543	-0.462495	0.0140694	0.072308	0.256081	-0.203143	0.0395694	0.558724	1.79802	0.270615	-0.168265	0.0586275	0.5558	1.77065
0.3	0.172829	-0.0133388	-0.0303354	-0.167587	1.08108	-0.626771	-0.118218	-0.10169	-0.272707	0.225046	0.213468	0.148299	-0.0323935	-0.111957	-0.16666	-0.363386	0.27484	0.250187	0.312136	-0.0323543	-0.466154	0.0133706	0.0720241	0.276471	-0.206346	0.0445288	0.569811	1.79695	0.289914	-0.172302	0.0644646	0.569228	1.77504
0.31	0.165702	-0.0131798	-0.031439	-0.171238	1.08036	-0.626586	-0.0998975	-0.102907	-0.268977	0.236954	0.213453	0.141533	-0.0323935	-0.0943237	-0.168221	-0.359251	0.285999	0.249214	0.302413	-0.0323542	-0.469738	0.0126391	0.0716443	0.297303	-0.209475	0.0490925	0.581758	1.79556	0.309223	-0.176529	0.0698674	0.584142	1.77908
0.32	0.158163	-0.0130433	-0.0326576	-0.175019	1.07954	-0.626395	-0.0808931	-0.104073	-0.265203	0.249044	0.213331	0.134797	-0.0323935	-0.0761	-0.169875	-0.355351	0.297263	0.2483	0.293013	-0.0323541	-0.473271	0.0118695	0.0712062	0.318561	-0.212528	0.0532991	0.594384	1.79407	0.32855	-0.180907	0.0747658	0.600433	1.78271
0.33	0.150224	-0.0129117	-0.0339983	-0.178925	1.07863	-0.626201	-0.0612262	-0.105214	-0.261446	0.26131	0.213145	0.12822	-0.0323934	-0.0573546	-0.171598	-0.35173	0.30854	0.247476	0.284045	-0.0323541	-0.476769	0.011042	0.0707245	0.340217	-0.215492	0.0571577	0.607568	1.79274	0.347886	-0.1854	0.0791006	0.618044	1.78584
0.34	0.141872	-0.0127508	-0.0354665	-0.182955	1.0776	-0.626005	-0.0408668	-0.106372	-0.25774	0.27379	0.212951	0.121894	-0.0323934	-0.0381155	-0.173361	-0.348413	0.319766	0.246779	0.27559	-0.032354	-0.480226	0.0101245	0.0702053	0.362225	-0.218347	0.0606436	0.62124	1.79181	0.367214	-0.189983	0.0828207	0.636944	1.78847
0.35	0.133071	-0.0125166	-0.0370688	-0.18711	1.07645	-0.625809	-0.0197303	-0.107601	-0.254086	0.286569	0.212814	0.115864	-0.0323933	-0.0183604	-0.175133	-0.345416	0.330922	0.246257	0.267705	-0.032354	-0.483617	0.00907844	0.0696525	0.384525	-0.221067	0.0636961	0.635386	1.79147	0.386512	-0.194632	0.0858897	0.657106	1.79063
0.36	0.123766	-0.0121581	-0.038805	-0.19139	1.07517	-0.625617	0.00231357	-0.10896	-0.250462	0.299773	0.212802	0.110125	-0.0323933	0.00198832	-0.176884	-0.342738	0.342051	0.245963	0.260414	-0.0323539	-0.486895	0.00786421	0.0690631	0.407042	-0.223628	0.0662247	0.650033	1.79187	0.405761	-0.199334	0.0882943	0.678489	1.7924
